<?xml version="1.0" standalone="no"?>
<!DOCTYPE svg PUBLIC "-//W3C//DTD SVG 20010904//EN" "http://www.w3.org/TR/2001/REC-SVG-20010904/DTD/svg10.dtd">
<!-- Created using Krita: https://krita.org -->
<svg xmlns="http://www.w3.org/2000/svg" 
    xmlns:xlink="http://www.w3.org/1999/xlink"
    xmlns:krita="http://krita.org/namespaces/svg/krita"
    xmlns:sodipodi="http://sodipodi.sourceforge.net/DTD/sodipodi-0.dtd"
    width="240pt"
    height="172.8pt"
    viewBox="0 0 240 172.8">
<defs/>
<rect id="shape0" fill="#000000" fill-rule="evenodd" stroke="none" stroke-width="1.3007592" stroke-linecap="square" stroke-linejoin="bevel" width="240" height="172.8"/><ellipse id="shape1" transform="matrix(-0.997570041277857 0.0188793840940688 -0.205909361149002 -1.05239777836955 105.318882314904 107.529823136759)" rx="0.690000066982161" ry="0.629999929500174" cx="0.690000066982161" cy="0.629999929500174" fill="#ffffff" fill-rule="evenodd" stroke="none" stroke-width="1.3007592" stroke-linecap="square" stroke-linejoin="bevel"/><ellipse id="shape0" transform="matrix(-0.997570041175738 0.0188793840921361 -0.205909361127924 -1.05239777826182 96.9577391597615 88.2492528510336)" rx="0.690000066982161" ry="0.629999929500174" cx="0.690000066982161" cy="0.629999929500174" fill="#ffffff" fill-rule="evenodd" stroke-opacity="0" stroke="#000000" stroke-width="0" stroke-linecap="square" stroke-linejoin="bevel"/><ellipse id="shape01" transform="matrix(-0.997570041175738 0.0188793840921361 -0.205909361127924 -1.05239777826182 15.8252457545664 77.4158343808122)" rx="0.690000066982161" ry="0.629999929500174" cx="0.690000066982161" cy="0.629999929500174" fill="#ffffff" fill-rule="evenodd" stroke-opacity="0" stroke="#000000" stroke-width="0" stroke-linecap="square" stroke-linejoin="bevel"/><path id="shape02" transform="matrix(-0.997570041175738 0.0188793840921361 -0.205909361127924 -1.05239777826182 79.1308942791695 62.6592614209433)" sodipodi:type="arc" sodipodi:rx="0.690000066982161" sodipodi:ry="0.629999929500174" sodipodi:cx="0.690089144153159" sodipodi:cy="0.630115221369862" sodipodi:start="6.28318530717959" sodipodi:end="5.92876409200231" sodipodi:open="true" d="M1.3372 0.411475C1.21316 0.105423 0.85369 -0.0634851 0.508828 0.0222418C0.163967 0.107969 -0.0521116 0.419951 0.010895 0.741174C0.0739016 1.0624 0.395135 1.28652 0.751147 1.25764C1.10716 1.22877 1.38009 0.95645 1.38009 0.630115" fill="#ffffff" fill-rule="evenodd" stroke-opacity="0" stroke="#000000" stroke-width="0" stroke-linecap="square" stroke-linejoin="bevel"/><ellipse id="shape03" transform="matrix(-0.997570041175738 0.0188793840921361 -0.205909361127924 -1.05239777826182 27.2329448859528 96.3315760646421)" rx="0.690000066982161" ry="0.629999929500174" cx="0.690000066982161" cy="0.629999929500174" fill="#ffffff" fill-rule="evenodd" stroke-opacity="0" stroke="#000000" stroke-width="0" stroke-linecap="square" stroke-linejoin="bevel"/><ellipse id="shape04" transform="matrix(-0.997570041175738 0.0188793840921361 -0.205909361127924 -1.05239777826182 96.3803921409466 69.095441885572)" rx="0.690000066982161" ry="0.629999929500174" cx="0.690000066982161" cy="0.629999929500174" fill="#ffffff" fill-rule="evenodd" stroke-opacity="0" stroke="#000000" stroke-width="0" stroke-linecap="square" stroke-linejoin="bevel"/><ellipse id="shape05" transform="matrix(-0.997570041175738 0.0188793840921361 -0.205909361127924 -1.05239777826182 74.6955415110653 105.422748845988)" rx="0.690000066982161" ry="0.629999929500174" cx="0.690000066982161" cy="0.629999929500174" fill="#ffffff" fill-rule="evenodd" stroke-opacity="0" stroke="#000000" stroke-width="0" stroke-linecap="square" stroke-linejoin="bevel"/><ellipse id="shape06" transform="matrix(-0.997570041175738 0.0188793840921361 -0.205909361127924 -1.05239777826182 48.5090429001467 108.53786439807)" rx="0.690000066982161" ry="0.629999929500174" cx="0.690000066982161" cy="0.629999929500174" fill="#ffffff" fill-rule="evenodd" stroke-opacity="0" stroke="#000000" stroke-width="0" stroke-linecap="square" stroke-linejoin="bevel"/><ellipse id="shape07" transform="matrix(-0.997570041175738 0.0188793840921361 -0.205909361127924 -1.05239777826182 22.9800434405026 62.2546412158898)" rx="0.690000066982161" ry="0.629999929500174" cx="0.690000066982161" cy="0.629999929500174" fill="#ffffff" fill-rule="evenodd" stroke-opacity="0" stroke="#000000" stroke-width="0" stroke-linecap="square" stroke-linejoin="bevel"/><ellipse id="shape08" transform="matrix(-0.997570041175738 0.0188793840921361 -0.205909361127924 -1.05239777826182 23.6542756829237 102.998791216449)" rx="0.690000066982161" ry="0.629999929500174" cx="0.690000066982161" cy="0.629999929500174" fill="#ffffff" fill-rule="evenodd" stroke-opacity="0" stroke="#000000" stroke-width="0" stroke-linecap="square" stroke-linejoin="bevel"/><ellipse id="shape09" transform="matrix(-0.997570041175738 0.0188793840921361 -0.205909361127924 -1.05239777826182 3.92067412556923 111.098992224874)" rx="0.690000066982161" ry="0.629999929500174" cx="0.690000066982161" cy="0.629999929500174" fill="#ffffff" fill-rule="evenodd" stroke-opacity="0" stroke="#000000" stroke-width="0" stroke-linecap="square" stroke-linejoin="bevel"/><ellipse id="shape010" transform="matrix(-0.997570041175738 0.0188793840921361 -0.205909361127924 -1.05239777826182 69.3257666519678 87.5205432535201)" rx="0.690000066982161" ry="0.629999929500174" cx="0.690000066982161" cy="0.629999929500174" fill="#ffffff" fill-rule="evenodd" stroke-opacity="0" stroke="#000000" stroke-width="0" stroke-linecap="square" stroke-linejoin="bevel"/><ellipse id="shape011" transform="matrix(-0.997570041175738 0.0188793840921361 -0.205909361127924 -1.05239777826182 61.9557198206671 89.3078442632137)" rx="0.690000066982161" ry="0.629999929500174" cx="0.690000066982161" cy="0.629999929500174" fill="#ffffff" fill-rule="evenodd" stroke-opacity="0" stroke="#000000" stroke-width="0" stroke-linecap="square" stroke-linejoin="bevel"/><ellipse id="shape012" transform="matrix(-0.997570041175738 0.0188793840921361 -0.205909361127924 -1.05239777826182 55.3211468681027 85.0286572648027)" rx="0.690000066982161" ry="0.629999929500174" cx="0.690000066982161" cy="0.629999929500174" fill="#ffffff" fill-rule="evenodd" stroke-opacity="0" stroke="#000000" stroke-width="0" stroke-linecap="square" stroke-linejoin="bevel"/><ellipse id="shape013" transform="matrix(-0.997570041175738 0.0188793840921361 -0.205909361127924 -1.05239777826182 68.0042498658841 79.8451657433232)" rx="0.690000066982161" ry="0.629999929500174" cx="0.690000066982161" cy="0.629999929500174" fill="#ffffff" fill-rule="evenodd" stroke-opacity="0" stroke="#000000" stroke-width="0" stroke-linecap="square" stroke-linejoin="bevel"/><ellipse id="shape014" transform="matrix(-0.997570041175738 0.0188793840921361 -0.205909361127924 -1.05239777826182 46.860904240081 78.787625004315)" rx="0.690000066982161" ry="0.629999929500174" cx="0.690000066982161" cy="0.629999929500174" fill="#ffffff" fill-rule="evenodd" stroke-opacity="0" stroke="#000000" stroke-width="0" stroke-linecap="square" stroke-linejoin="bevel"/><ellipse id="shape015" transform="matrix(-0.997570041175738 0.0188793840921361 -0.205909361127924 -1.05239777826182 35.4835758736893 74.2179303078991)" rx="0.690000066982161" ry="0.629999929500174" cx="0.690000066982161" cy="0.629999929500174" fill="#ffffff" fill-rule="evenodd" stroke-opacity="0" stroke="#000000" stroke-width="0" stroke-linecap="square" stroke-linejoin="bevel"/><ellipse id="shape016" transform="matrix(-0.997570041175738 0.0188793840921361 -0.205909361127924 -1.05239777826182 40.7591186257695 87.3640251359322)" rx="0.690000066982161" ry="0.629999929500174" cx="0.690000066982161" cy="0.629999929500174" fill="#ffffff" fill-rule="evenodd" stroke-opacity="0" stroke="#000000" stroke-width="0" stroke-linecap="square" stroke-linejoin="bevel"/><ellipse id="shape017" transform="matrix(-0.997570041175738 0.0188793840921361 -0.205909361127924 -1.05239777826182 25.7104660864165 86.4446507712939)" rx="0.690000066982161" ry="0.629999929500174" cx="0.690000066982161" cy="0.629999929500174" fill="#ffffff" fill-rule="evenodd" stroke-opacity="0" stroke="#000000" stroke-width="0" stroke-linecap="square" stroke-linejoin="bevel"/><ellipse id="shape018" transform="matrix(-0.997570041175738 0.0188793840921361 -0.205909361127924 -1.05239777826182 67.7588002949579 66.0017885005722)" rx="0.690000066982161" ry="0.629999929500174" cx="0.690000066982161" cy="0.629999929500174" fill="#ffffff" fill-rule="evenodd" stroke-opacity="0" stroke="#000000" stroke-width="0" stroke-linecap="square" stroke-linejoin="bevel"/><ellipse id="shape019" transform="matrix(-0.997570041175738 0.0188793840921361 -0.205909361127924 -1.05239777826182 18.9293524356298 61.9190671999608)" rx="0.690000066982161" ry="0.629999929500174" cx="0.690000066982161" cy="0.629999929500174" fill="#ffffff" fill-rule="evenodd" stroke-opacity="0" stroke="#000000" stroke-width="0" stroke-linecap="square" stroke-linejoin="bevel"/><ellipse id="shape2" transform="matrix(-0.764932639850991 0.644110282863575 -0.644110282863575 -0.764932639850991 209.953710856763 20.3836523778565)" rx="0.690000066982161" ry="0.629999929500174" cx="0.690000066982161" cy="0.629999929500174" fill="#ffffff" fill-rule="evenodd" stroke="none" stroke-width="1.3007592" stroke-linecap="square" stroke-linejoin="bevel"/><ellipse id="shape020" transform="matrix(-0.764932639772687 0.644110282797639 -0.644110282797639 -0.764932639772687 194.594601253817 9.25866470808836)" rx="0.690000066982161" ry="0.629999929500174" cx="0.690000066982161" cy="0.629999929500174" fill="#ffffff" fill-rule="evenodd" stroke-opacity="0" stroke="#000000" stroke-width="0" stroke-linecap="square" stroke-linejoin="bevel"/><ellipse id="shape021" transform="matrix(-0.764932639772687 0.644110282797639 -0.644110282797639 -0.764932639772687 126.689053778588 51.1302908877897)" rx="0.690000066982161" ry="0.629999929500174" cx="0.690000066982161" cy="0.629999929500174" fill="#ffffff" fill-rule="evenodd" stroke-opacity="0" stroke="#000000" stroke-width="0" stroke-linecap="square" stroke-linejoin="bevel"/><path id="shape022" transform="matrix(-0.764932639772687 0.644110282797639 -0.644110282797639 -0.764932639772687 168.990499259032 -1.27000044856066)" sodipodi:type="arc" sodipodi:rx="0.690000066982161" sodipodi:ry="0.629999929500174" sodipodi:cx="0.690089144153159" sodipodi:cy="0.630115221369862" sodipodi:start="6.28318530717959" sodipodi:end="5.92876409200231" sodipodi:open="true" d="M1.3372 0.411475C1.21316 0.105423 0.85369 -0.0634851 0.508828 0.0222418C0.163967 0.107969 -0.0521116 0.419951 0.010895 0.741174C0.0739016 1.0624 0.395135 1.28652 0.751147 1.25764C1.10716 1.22877 1.38009 0.95645 1.38009 0.630115" fill="#ffffff" fill-rule="evenodd" stroke-opacity="0" stroke="#000000" stroke-width="0" stroke-linecap="square" stroke-linejoin="bevel"/><ellipse id="shape023" transform="matrix(-0.764932639772687 0.644110282797639 -0.644110282797639 -0.764932639772687 144.242856941444 60.0270751133076)" rx="0.690000066982161" ry="0.629999929500174" cx="0.690000066982161" cy="0.629999929500174" fill="#ffffff" fill-rule="evenodd" stroke-opacity="0" stroke="#000000" stroke-width="0" stroke-linecap="square" stroke-linejoin="bevel"/><ellipse id="shape024" transform="matrix(-0.764932639772687 0.644110282797639 -0.644110282797639 -0.764932639772687 185.330231380264 -6.65918998544535)" rx="0.690000066982161" ry="0.629999929500174" cx="0.690000066982161" cy="0.629999929500174" fill="#ffffff" fill-rule="evenodd" stroke-opacity="0" stroke="#000000" stroke-width="0" stroke-linecap="square" stroke-linejoin="bevel"/><ellipse id="shape025" transform="matrix(-0.764932639772687 0.644110282797639 -0.644110282797639 -0.764932639772687 185.235182337371 37.8727854131672)" rx="0.690000066982161" ry="0.629999929500174" cx="0.690000066982161" cy="0.629999929500174" fill="#ffffff" fill-rule="evenodd" stroke-opacity="0" stroke="#000000" stroke-width="0" stroke-linecap="square" stroke-linejoin="bevel"/><ellipse id="shape026" transform="matrix(-0.764932639772687 0.644110282797639 -0.644110282797639 -0.764932639772687 166.361268249705 57.0075449697082)" rx="0.690000066982161" ry="0.629999929500174" cx="0.690000066982161" cy="0.629999929500174" fill="#ffffff" fill-rule="evenodd" stroke-opacity="0" stroke="#000000" stroke-width="0" stroke-linecap="square" stroke-linejoin="bevel"/><ellipse id="shape027" transform="matrix(-0.764932639772687 0.644110282797639 -0.644110282797639 -0.764932639772687 125.258849230256 33.7381910241646)" rx="0.690000066982161" ry="0.629999929500174" cx="0.690000066982161" cy="0.629999929500174" fill="#ffffff" fill-rule="evenodd" stroke-opacity="0" stroke="#000000" stroke-width="0" stroke-linecap="square" stroke-linejoin="bevel"/><ellipse id="shape028" transform="matrix(-0.764932639772687 0.644110282797639 -0.644110282797639 -0.764932639772687 144.536538189026 67.9475216209068)" rx="0.690000066982161" ry="0.629999929500174" cx="0.690000066982161" cy="0.629999929500174" fill="#ffffff" fill-rule="evenodd" stroke-opacity="0" stroke="#000000" stroke-width="0" stroke-linecap="square" stroke-linejoin="bevel"/><ellipse id="shape029" transform="matrix(-0.764932639772687 0.644110282797639 -0.644110282797639 -0.764932639772687 132.961563197392 87.2570692456199)" rx="0.690000066982161" ry="0.629999929500174" cx="0.690000066982161" cy="0.629999929500174" fill="#ffffff" fill-rule="evenodd" stroke-opacity="0" stroke="#000000" stroke-width="0" stroke-linecap="square" stroke-linejoin="bevel"/><ellipse id="shape030" transform="matrix(-0.764932639772687 0.644110282797639 -0.644110282797639 -0.764932639772687 172.8303718906 26.0361097056365)" rx="0.690000066982161" ry="0.629999929500174" cx="0.690000066982161" cy="0.629999929500174" fill="#ffffff" fill-rule="evenodd" stroke-opacity="0" stroke="#000000" stroke-width="0" stroke-linecap="square" stroke-linejoin="bevel"/><ellipse id="shape031" transform="matrix(-0.764932639772687 0.644110282797639 -0.644110282797639 -0.764932639772687 167.937553150867 32.1954955273446)" rx="0.690000066982161" ry="0.629999929500174" cx="0.690000066982161" cy="0.629999929500174" fill="#ffffff" fill-rule="evenodd" stroke-opacity="0" stroke="#000000" stroke-width="0" stroke-linecap="square" stroke-linejoin="bevel"/><ellipse id="shape032" transform="matrix(-0.764932639772687 0.644110282797639 -0.644110282797639 -0.764932639772687 160.822653041412 32.7351252826297)" rx="0.690000066982161" ry="0.629999929500174" cx="0.690000066982161" cy="0.629999929500174" fill="#ffffff" fill-rule="evenodd" stroke-opacity="0" stroke="#000000" stroke-width="0" stroke-linecap="square" stroke-linejoin="bevel"/><ellipse id="shape033" transform="matrix(-0.764932639772687 0.644110282797639 -0.644110282797639 -0.764932639772687 168.272495955276 20.3438115008949)" rx="0.690000066982161" ry="0.629999929500174" cx="0.690000066982161" cy="0.629999929500174" fill="#ffffff" fill-rule="evenodd" stroke-opacity="0" stroke="#000000" stroke-width="0" stroke-linecap="square" stroke-linejoin="bevel"/><ellipse id="shape034" transform="matrix(-0.764932639772687 0.644110282797639 -0.644110282797639 -0.764932639772687 151.388881504231 32.7565514257018)" rx="0.690000066982161" ry="0.629999929500174" cx="0.690000066982161" cy="0.629999929500174" fill="#ffffff" fill-rule="evenodd" stroke-opacity="0" stroke="#000000" stroke-width="0" stroke-linecap="square" stroke-linejoin="bevel"/><ellipse id="shape035" transform="matrix(-0.764932639772687 0.644110282797639 -0.644110282797639 -0.764932639772687 140.462216737008 36.0352416991891)" rx="0.690000066982161" ry="0.629999929500174" cx="0.690000066982161" cy="0.629999929500174" fill="#ffffff" fill-rule="evenodd" stroke-opacity="0" stroke="#000000" stroke-width="0" stroke-linecap="square" stroke-linejoin="bevel"/><ellipse id="shape036" transform="matrix(-0.764932639772687 0.644110282797639 -0.644110282797639 -0.764932639772687 150.604678478512 43.8883999513595)" rx="0.690000066982161" ry="0.629999929500174" cx="0.690000066982161" cy="0.629999929500174" fill="#ffffff" fill-rule="evenodd" stroke-opacity="0" stroke="#000000" stroke-width="0" stroke-linecap="square" stroke-linejoin="bevel"/><ellipse id="shape037" transform="matrix(-0.764932639772687 0.644110282797639 -0.644110282797639 -0.764932639772687 138.511142583583 52.5814151291639)" rx="0.690000066982161" ry="0.629999929500174" cx="0.690000066982161" cy="0.629999929500174" fill="#ffffff" fill-rule="evenodd" stroke-opacity="0" stroke="#000000" stroke-width="0" stroke-linecap="square" stroke-linejoin="bevel"/><ellipse id="shape038" transform="matrix(-0.764932639772687 0.644110282797639 -0.644110282797639 -0.764932639772687 161.709944748235 8.73103416875432)" rx="0.690000066982161" ry="0.629999929500174" cx="0.690000066982161" cy="0.629999929500174" fill="#ffffff" fill-rule="evenodd" stroke-opacity="0" stroke="#000000" stroke-width="0" stroke-linecap="square" stroke-linejoin="bevel"/><ellipse id="shape039" transform="matrix(-0.764932639772687 0.644110282797639 -0.644110282797639 -0.764932639772687 121.963041304179 36.0032254632052)" rx="0.690000066982161" ry="0.629999929500174" cx="0.690000066982161" cy="0.629999929500174" fill="#ffffff" fill-rule="evenodd" stroke-opacity="0" stroke="#000000" stroke-width="0" stroke-linecap="square" stroke-linejoin="bevel"/><ellipse id="shape3" transform="matrix(0.871851674934393 0.485156753341607 -0.351038350441782 1.0132678942141 156.693550503627 -2.42400521094526)" rx="0.690000066982161" ry="0.629999929500174" cx="0.690000066982161" cy="0.629999929500174" fill="#ffffff" fill-rule="evenodd" stroke="none" stroke-width="1.3007592" stroke-linecap="square" stroke-linejoin="bevel"/><ellipse id="shape040" transform="matrix(0.871851674845144 0.485156753291943 -0.351038350405847 1.01326789411037 154.229118576925 18.4464447286759)" rx="0.690000066982161" ry="0.629999929500174" cx="0.690000066982161" cy="0.629999929500174" fill="#ffffff" fill-rule="evenodd" stroke-opacity="0" stroke="#000000" stroke-width="0" stroke-linecap="square" stroke-linejoin="bevel"/><ellipse id="shape041" transform="matrix(0.871851674845144 0.485156753291943 -0.351038350405847 1.01326789411037 218.919100274279 68.596725983032)" rx="0.690000066982161" ry="0.629999929500174" cx="0.690000066982161" cy="0.629999929500174" fill="#ffffff" fill-rule="evenodd" stroke-opacity="0" stroke="#000000" stroke-width="0" stroke-linecap="square" stroke-linejoin="bevel"/><path id="shape042" transform="matrix(0.871851674845144 0.485156753291943 -0.351038350405847 1.01326789411037 156.775684263312 49.5295440431539)" sodipodi:type="arc" sodipodi:rx="0.690000066982161" sodipodi:ry="0.629999929500174" sodipodi:cx="0.690089144153159" sodipodi:cy="0.630115221369862" sodipodi:start="6.28318530717959" sodipodi:end="5.92876409200231" sodipodi:open="true" d="M1.3372 0.411475C1.21316 0.105423 0.85369 -0.0634851 0.508828 0.0222418C0.163967 0.107969 -0.0521116 0.419951 0.010895 0.741174C0.0739016 1.0624 0.395135 1.28652 0.751147 1.25764C1.10716 1.22877 1.38009 0.95645 1.38009 0.630115" fill="#ffffff" fill-rule="evenodd" stroke-opacity="0" stroke="#000000" stroke-width="0" stroke-linecap="square" stroke-linejoin="bevel"/><ellipse id="shape043" transform="matrix(0.871851674845144 0.485156753291943 -0.351038350405847 1.01326789411037 218.566502535108 46.5101563590287)" rx="0.690000066982161" ry="0.629999929500174" cx="0.690000066982161" cy="0.629999929500174" fill="#ffffff" fill-rule="evenodd" stroke-opacity="0" stroke="#000000" stroke-width="0" stroke-linecap="square" stroke-linejoin="bevel"/><ellipse id="shape044" transform="matrix(0.871851674845144 0.485156753291943 -0.351038350405847 1.01326789411037 145.099615254323 35.2944111686758)" rx="0.690000066982161" ry="0.629999929500174" cx="0.690000066982161" cy="0.629999929500174" fill="#ffffff" fill-rule="evenodd" stroke-opacity="0" stroke="#000000" stroke-width="0" stroke-linecap="square" stroke-linejoin="bevel"/><ellipse id="shape045" transform="matrix(0.871851674845144 0.485156753291943 -0.351038350405847 1.01326789411037 182.10703013332 14.7917961693572)" rx="0.690000066982161" ry="0.629999929500174" cx="0.690000066982161" cy="0.629999929500174" fill="#ffffff" fill-rule="evenodd" stroke-opacity="0" stroke="#000000" stroke-width="0" stroke-linecap="square" stroke-linejoin="bevel"/><ellipse id="shape046" transform="matrix(0.871851674845144 0.485156753291943 -0.351038350405847 1.01326789411037 206.310218431737 25.2628195478936)" rx="0.690000066982161" ry="0.629999929500174" cx="0.690000066982161" cy="0.629999929500174" fill="#ffffff" fill-rule="evenodd" stroke-opacity="0" stroke="#000000" stroke-width="0" stroke-linecap="square" stroke-linejoin="bevel"/><ellipse id="shape047" transform="matrix(0.871851674845144 0.485156753291943 -0.351038350405847 1.01326789411037 205.112538632499 78.1062876838937)" rx="0.690000066982161" ry="0.629999929500174" cx="0.690000066982161" cy="0.629999929500174" fill="#ffffff" fill-rule="evenodd" stroke-opacity="0" stroke="#000000" stroke-width="0" stroke-linecap="square" stroke-linejoin="bevel"/><ellipse id="shape048" transform="matrix(0.871851674845144 0.485156753291943 -0.351038350405847 1.01326789411037 225.011725789932 42.5455973241966)" rx="0.690000066982161" ry="0.629999929500174" cx="0.690000066982161" cy="0.629999929500174" fill="#ffffff" fill-rule="evenodd" stroke-opacity="0" stroke="#000000" stroke-width="0" stroke-linecap="square" stroke-linejoin="bevel"/><ellipse id="shape049" transform="matrix(0.871851674845144 0.485156753291943 -0.351038350405847 1.01326789411037 246.142628581981 45.4633420001893)" rx="0.690000066982161" ry="0.629999929500174" cx="0.690000066982161" cy="0.629999929500174" fill="#ffffff" fill-rule="evenodd" stroke-opacity="0" stroke="#000000" stroke-width="0" stroke-linecap="square" stroke-linejoin="bevel"/><ellipse id="shape050" transform="matrix(0.871851674845144 0.485156753291943 -0.351038350405847 1.01326789411037 177.749577340228 32.9669454746131)" rx="0.690000066982161" ry="0.629999929500174" cx="0.690000066982161" cy="0.629999929500174" fill="#ffffff" fill-rule="evenodd" stroke-opacity="0" stroke="#000000" stroke-width="0" stroke-linecap="square" stroke-linejoin="bevel"/><ellipse id="shape051" transform="matrix(0.871851674845144 0.485156753291943 -0.351038350405847 1.01326789411037 185.019174153839 35.1268059706534)" rx="0.690000066982161" ry="0.629999929500174" cx="0.690000066982161" cy="0.629999929500174" fill="#ffffff" fill-rule="evenodd" stroke-opacity="0" stroke="#000000" stroke-width="0" stroke-linecap="square" stroke-linejoin="bevel"/><ellipse id="shape052" transform="matrix(0.871851674845144 0.485156753291943 -0.351038350405847 1.01326789411037 188.603365808787 42.1611907917211)" rx="0.690000066982161" ry="0.629999929500174" cx="0.690000066982161" cy="0.629999929500174" fill="#ffffff" fill-rule="evenodd" stroke-opacity="0" stroke="#000000" stroke-width="0" stroke-linecap="square" stroke-linejoin="bevel"/><ellipse id="shape053" transform="matrix(0.871851674845144 0.485156753291943 -0.351038350405847 1.01326789411037 175.033574887527 40.2663397794072)" rx="0.690000066982161" ry="0.629999929500174" cx="0.690000066982161" cy="0.629999929500174" fill="#ffffff" fill-rule="evenodd" stroke-opacity="0" stroke="#000000" stroke-width="0" stroke-linecap="square" stroke-linejoin="bevel"/><ellipse id="shape054" transform="matrix(0.871851674845144 0.485156753291943 -0.351038350405847 1.01326789411037 192.779561613603 51.8092775243994)" rx="0.690000066982161" ry="0.629999929500174" cx="0.690000066982161" cy="0.629999929500174" fill="#ffffff" fill-rule="evenodd" stroke-opacity="0" stroke="#000000" stroke-width="0" stroke-linecap="square" stroke-linejoin="bevel"/><ellipse id="shape055" transform="matrix(0.871851674845144 0.485156753291943 -0.351038350405847 1.01326789411037 200.317645510031 61.4789725322872)" rx="0.690000066982161" ry="0.629999929500174" cx="0.690000066982161" cy="0.629999929500174" fill="#ffffff" fill-rule="evenodd" stroke-opacity="0" stroke="#000000" stroke-width="0" stroke-linecap="square" stroke-linejoin="bevel"/><ellipse id="shape056" transform="matrix(0.871851674845144 0.485156753291943 -0.351038350405847 1.01326789411037 202.365667199488 47.4626688927333)" rx="0.690000066982161" ry="0.629999929500174" cx="0.690000066982161" cy="0.629999929500174" fill="#ffffff" fill-rule="evenodd" stroke-opacity="0" stroke="#000000" stroke-width="0" stroke-linecap="square" stroke-linejoin="bevel"/><ellipse id="shape057" transform="matrix(0.871851674845144 0.485156753291943 -0.351038350405847 1.01326789411037 214.912481630266 55.8223722434606)" rx="0.690000066982161" ry="0.629999929500174" cx="0.690000066982161" cy="0.629999929500174" fill="#ffffff" fill-rule="evenodd" stroke-opacity="0" stroke="#000000" stroke-width="0" stroke-linecap="square" stroke-linejoin="bevel"/><ellipse id="shape058" transform="matrix(0.871851674845144 0.485156753291943 -0.351038350405847 1.01326789411037 168.286707581416 52.3567955413175)" rx="0.690000066982161" ry="0.629999929500174" cx="0.690000066982161" cy="0.629999929500174" fill="#ffffff" fill-rule="evenodd" stroke-opacity="0" stroke="#000000" stroke-width="0" stroke-linecap="square" stroke-linejoin="bevel"/><ellipse id="shape059" transform="matrix(0.871851674845144 0.485156753291943 -0.351038350405847 1.01326789411037 208.445512958148 80.4326560299833)" rx="0.690000066982161" ry="0.629999929500174" cx="0.690000066982161" cy="0.629999929500174" fill="#ffffff" fill-rule="evenodd" stroke-opacity="0" stroke="#000000" stroke-width="0" stroke-linecap="square" stroke-linejoin="bevel"/><ellipse id="shape4" transform="matrix(0.98504838472322 -0.172277914295986 0.172277914295986 0.98504838472322 22.432480353948 20.310714144856)" rx="0.690000066982161" ry="0.629999929500174" cx="0.690000066982161" cy="0.629999929500174" fill="#ffffff" fill-rule="evenodd" stroke="none" stroke-width="1.3007592" stroke-linecap="square" stroke-linejoin="bevel"/><ellipse id="shape060" transform="matrix(0.985048384622383 -0.172277914278351 0.172277914278351 0.985048384622383 30.1173235062783 37.6488450756071)" rx="0.690000066982161" ry="0.629999929500174" cx="0.690000066982161" cy="0.629999929500174" fill="#ffffff" fill-rule="evenodd" stroke-opacity="0" stroke="#000000" stroke-width="0" stroke-linecap="square" stroke-linejoin="bevel"/><ellipse id="shape061" transform="matrix(0.985048384622383 -0.172277914278351 0.172277914278351 0.985048384622383 109.867880247494 35.5884673652194)" rx="0.690000066982161" ry="0.629999929500174" cx="0.690000066982161" cy="0.629999929500174" fill="#ffffff" fill-rule="evenodd" stroke-opacity="0" stroke="#000000" stroke-width="0" stroke-linecap="square" stroke-linejoin="bevel"/><path id="shape062" transform="matrix(0.985048384622383 -0.172277914278351 0.172277914278351 0.985048384622383 46.9583401651181 59.6216233896232)" sodipodi:type="arc" sodipodi:rx="0.690000066982161" sodipodi:ry="0.629999929500174" sodipodi:cx="0.690089144153159" sodipodi:cy="0.630115221369862" sodipodi:start="6.28318530717959" sodipodi:end="5.92876409200231" sodipodi:open="true" d="M1.3372 0.411475C1.21316 0.105423 0.85369 -0.0634851 0.508828 0.0222418C0.163967 0.107969 -0.0521116 0.419951 0.010895 0.741174C0.0739016 1.0624 0.395135 1.28652 0.751147 1.25764C1.10716 1.22877 1.38009 0.95645 1.38009 0.630115" fill="#ffffff" fill-rule="evenodd" stroke-opacity="0" stroke="#000000" stroke-width="0" stroke-linecap="square" stroke-linejoin="bevel"/><ellipse id="shape063" transform="matrix(0.985048384622383 -0.172277914278351 0.172277914278351 0.985048384622383 99.165693522643 19.0732630267279)" rx="0.690000066982161" ry="0.629999929500174" cx="0.690000066982161" cy="0.629999929500174" fill="#ffffff" fill-rule="evenodd" stroke-opacity="0" stroke="#000000" stroke-width="0" stroke-linecap="square" stroke-linejoin="bevel"/><ellipse id="shape064" transform="matrix(0.985048384622383 -0.172277914278351 0.172277914278351 0.985048384622383 30.1241295001168 56.0664073702462)" rx="0.690000066982161" ry="0.629999929500174" cx="0.690000066982161" cy="0.629999929500174" fill="#ffffff" fill-rule="evenodd" stroke-opacity="0" stroke="#000000" stroke-width="0" stroke-linecap="square" stroke-linejoin="bevel"/><ellipse id="shape065" transform="matrix(0.985048384622383 -0.172277914278351 0.172277914278351 0.985048384622383 52.5924660763721 17.6180040390376)" rx="0.690000066982161" ry="0.629999929500174" cx="0.690000066982161" cy="0.629999929500174" fill="#ffffff" fill-rule="evenodd" stroke-opacity="0" stroke="#000000" stroke-width="0" stroke-linecap="square" stroke-linejoin="bevel"/><ellipse id="shape066" transform="matrix(0.985048384622383 -0.172277914278351 0.172277914278351 0.985048384622383 78.5272613045944 10.5646323101825)" rx="0.690000066982161" ry="0.629999929500174" cx="0.690000066982161" cy="0.629999929500174" fill="#ffffff" fill-rule="evenodd" stroke-opacity="0" stroke="#000000" stroke-width="0" stroke-linecap="square" stroke-linejoin="bevel"/><ellipse id="shape067" transform="matrix(0.985048384622383 -0.172277914278351 0.172277914278351 0.985048384622383 102.361249587518 51.34223259297)" rx="0.690000066982161" ry="0.629999929500174" cx="0.690000066982161" cy="0.629999929500174" fill="#ffffff" fill-rule="evenodd" stroke-opacity="0" stroke="#000000" stroke-width="0" stroke-linecap="square" stroke-linejoin="bevel"/><ellipse id="shape068" transform="matrix(0.985048384622383 -0.172277914278351 0.172277914278351 0.985048384622383 102.893416257378 12.0787076607408)" rx="0.690000066982161" ry="0.629999929500174" cx="0.690000066982161" cy="0.629999929500174" fill="#ffffff" fill-rule="evenodd" stroke-opacity="0" stroke="#000000" stroke-width="0" stroke-linecap="square" stroke-linejoin="bevel"/><ellipse id="shape069" transform="matrix(0.985048384622383 -0.172277914278351 0.172277914278351 0.985048384622383 122.606424394315 1.20507047159868)" rx="0.690000066982161" ry="0.629999929500174" cx="0.690000066982161" cy="0.629999929500174" fill="#ffffff" fill-rule="evenodd" stroke-opacity="0" stroke="#000000" stroke-width="0" stroke-linecap="square" stroke-linejoin="bevel"/><ellipse id="shape070" transform="matrix(0.985048384622383 -0.172277914278351 0.172277914278351 0.985048384622383 57.3656662244892 34.0862393534715)" rx="0.690000066982161" ry="0.629999929500174" cx="0.690000066982161" cy="0.629999929500174" fill="#ffffff" fill-rule="evenodd" stroke-opacity="0" stroke="#000000" stroke-width="0" stroke-linecap="square" stroke-linejoin="bevel"/><ellipse id="shape071" transform="matrix(0.985048384622383 -0.172277914278351 0.172277914278351 0.985048384622383 64.6916361478499 31.2213006800331)" rx="0.690000066982161" ry="0.629999929500174" cx="0.690000066982161" cy="0.629999929500174" fill="#ffffff" fill-rule="evenodd" stroke-opacity="0" stroke="#000000" stroke-width="0" stroke-linecap="square" stroke-linejoin="bevel"/><ellipse id="shape072" transform="matrix(0.985048384622383 -0.172277914278351 0.172277914278351 0.985048384622383 71.1134655736782 34.3314631622642)" rx="0.690000066982161" ry="0.629999929500174" cx="0.690000066982161" cy="0.629999929500174" fill="#ffffff" fill-rule="evenodd" stroke-opacity="0" stroke="#000000" stroke-width="0" stroke-linecap="square" stroke-linejoin="bevel"/><ellipse id="shape073" transform="matrix(0.985048384622383 -0.172277914278351 0.172277914278351 0.985048384622383 58.4442636763615 41.2982515158522)" rx="0.690000066982161" ry="0.629999929500174" cx="0.690000066982161" cy="0.629999929500174" fill="#ffffff" fill-rule="evenodd" stroke-opacity="0" stroke="#000000" stroke-width="0" stroke-linecap="square" stroke-linejoin="bevel"/><ellipse id="shape074" transform="matrix(0.985048384622383 -0.172277914278351 0.172277914278351 0.985048384622383 79.2793700599958 39.0552866576616)" rx="0.690000066982161" ry="0.629999929500174" cx="0.690000066982161" cy="0.629999929500174" fill="#ffffff" fill-rule="evenodd" stroke-opacity="0" stroke="#000000" stroke-width="0" stroke-linecap="square" stroke-linejoin="bevel"/><ellipse id="shape075" transform="matrix(0.985048384622383 -0.172277914278351 0.172277914278351 0.985048384622383 90.3732462223718 41.7138058956205)" rx="0.690000066982161" ry="0.629999929500174" cx="0.690000066982161" cy="0.629999929500174" fill="#ffffff" fill-rule="evenodd" stroke-opacity="0" stroke="#000000" stroke-width="0" stroke-linecap="square" stroke-linejoin="bevel"/><ellipse id="shape076" transform="matrix(0.985048384622383 -0.172277914278351 0.172277914278351 0.985048384622383 85.5532503199344 29.8264485689482)" rx="0.690000066982161" ry="0.629999929500174" cx="0.690000066982161" cy="0.629999929500174" fill="#ffffff" fill-rule="evenodd" stroke-opacity="0" stroke="#000000" stroke-width="0" stroke-linecap="square" stroke-linejoin="bevel"/><ellipse id="shape077" transform="matrix(0.985048384622383 -0.172277914278351 0.172277914278351 0.985048384622383 100.377616407462 28.391076343211)" rx="0.690000066982161" ry="0.629999929500174" cx="0.690000066982161" cy="0.629999929500174" fill="#ffffff" fill-rule="evenodd" stroke-opacity="0" stroke="#000000" stroke-width="0" stroke-linecap="square" stroke-linejoin="bevel"/><ellipse id="shape078" transform="matrix(0.985048384622383 -0.172277914278351 0.172277914278351 0.985048384622383 58.2796082791708 54.6360386003384)" rx="0.690000066982161" ry="0.629999929500174" cx="0.690000066982161" cy="0.629999929500174" fill="#ffffff" fill-rule="evenodd" stroke-opacity="0" stroke="#000000" stroke-width="0" stroke-linecap="square" stroke-linejoin="bevel"/><ellipse id="shape079" transform="matrix(0.985048384622383 -0.172277914278351 0.172277914278351 0.985048384622383 106.348979184658 51.0409958825171)" rx="0.690000066982161" ry="0.629999929500174" cx="0.690000066982161" cy="0.629999929500174" fill="#ffffff" fill-rule="evenodd" stroke-opacity="0" stroke="#000000" stroke-width="0" stroke-linecap="square" stroke-linejoin="bevel"/><ellipse id="shape5" transform="matrix(0.997600706116714 -0.0171828273083989 0.204119290444053 1.05274643869954 159.819009147584 38.9492063513679)" rx="0.690000066982161" ry="0.629999929500174" cx="0.690000066982161" cy="0.629999929500174" fill="#ffffff" fill-rule="evenodd" stroke="none" stroke-width="1.3007592" stroke-linecap="square" stroke-linejoin="bevel"/><ellipse id="shape080" transform="matrix(0.997600706014592 -0.0171828273066399 0.204119290423158 1.05274643859178 168.147350477803 58.243968233572)" rx="0.690000066982161" ry="0.629999929500174" cx="0.690000066982161" cy="0.629999929500174" fill="#ffffff" fill-rule="evenodd" stroke-opacity="0" stroke="#000000" stroke-width="0" stroke-linecap="square" stroke-linejoin="bevel"/><ellipse id="shape081" transform="matrix(0.997600706014592 -0.0171828273066399 0.204119290423158 1.05274643859178 249.26130257177 69.2153499875985)" rx="0.690000066982161" ry="0.629999929500174" cx="0.690000066982161" cy="0.629999929500174" fill="#ffffff" fill-rule="evenodd" stroke-opacity="0" stroke="#000000" stroke-width="0" stroke-linecap="square" stroke-linejoin="bevel"/><path id="shape082" transform="matrix(0.997600706014592 -0.0171828273066399 0.204119290423158 1.05274643859178 185.930649651945 83.8642400953565)" sodipodi:type="arc" sodipodi:rx="0.690000066982161" sodipodi:ry="0.629999929500174" sodipodi:cx="0.690089144153159" sodipodi:cy="0.630115221369862" sodipodi:start="6.28318530717959" sodipodi:end="5.92876409200231" sodipodi:open="true" d="M1.3372 0.411475C1.21316 0.105423 0.85369 -0.0634851 0.508828 0.0222418C0.163967 0.107969 -0.0521116 0.419951 0.010895 0.741174C0.0739016 1.0624 0.395135 1.28652 0.751147 1.25764C1.10716 1.22877 1.38009 0.95645 1.38009 0.630115" fill="#ffffff" fill-rule="evenodd" stroke-opacity="0" stroke="#000000" stroke-width="0" stroke-linecap="square" stroke-linejoin="bevel"/><ellipse id="shape083" transform="matrix(0.997600706014592 -0.0171828273066399 0.204119290423158 1.05274643859178 237.885789220865 50.2802350176543)" rx="0.690000066982161" ry="0.629999929500174" cx="0.690000066982161" cy="0.629999929500174" fill="#ffffff" fill-rule="evenodd" stroke-opacity="0" stroke="#000000" stroke-width="0" stroke-linecap="square" stroke-linejoin="bevel"/><ellipse id="shape084" transform="matrix(0.997600706014592 -0.0171828273066399 0.204119290423158 1.05274643859178 168.692122502811 77.3987333723447)" rx="0.690000066982161" ry="0.629999929500174" cx="0.690000066982161" cy="0.629999929500174" fill="#ffffff" fill-rule="evenodd" stroke-opacity="0" stroke="#000000" stroke-width="0" stroke-linecap="square" stroke-linejoin="bevel"/><ellipse id="shape085" transform="matrix(0.997600706014592 -0.0171828273066399 0.204119290423158 1.05274643859178 190.438722244968 41.1083575477409)" rx="0.690000066982161" ry="0.629999929500174" cx="0.690000066982161" cy="0.629999929500174" fill="#ffffff" fill-rule="evenodd" stroke-opacity="0" stroke="#000000" stroke-width="0" stroke-linecap="square" stroke-linejoin="bevel"/><ellipse id="shape086" transform="matrix(0.997600706014592 -0.0171828273066399 0.204119290423158 1.05274643859178 216.630480745605 38.037780884193)" rx="0.690000066982161" ry="0.629999929500174" cx="0.690000066982161" cy="0.629999929500174" fill="#ffffff" fill-rule="evenodd" stroke-opacity="0" stroke="#000000" stroke-width="0" stroke-linecap="square" stroke-linejoin="bevel"/><ellipse id="shape087" transform="matrix(0.997600706014592 -0.0171828273066399 0.204119290423158 1.05274643859178 242.080731167151 84.3643533348136)" rx="0.690000066982161" ry="0.629999929500174" cx="0.690000066982161" cy="0.629999929500174" fill="#ffffff" fill-rule="evenodd" stroke-opacity="0" stroke="#000000" stroke-width="0" stroke-linecap="square" stroke-linejoin="bevel"/><ellipse id="shape088" transform="matrix(0.997600706014592 -0.0171828273066399 0.204119290423158 1.05274643859178 241.475791928288 43.6191156142887)" rx="0.690000066982161" ry="0.629999929500174" cx="0.690000066982161" cy="0.629999929500174" fill="#ffffff" fill-rule="evenodd" stroke-opacity="0" stroke="#000000" stroke-width="0" stroke-linecap="square" stroke-linejoin="bevel"/><ellipse id="shape089" transform="matrix(0.997600706014592 -0.0171828273066399 0.204119290423158 1.05274643859178 261.223140652581 35.552486506511)" rx="0.690000066982161" ry="0.629999929500174" cx="0.690000066982161" cy="0.629999929500174" fill="#ffffff" fill-rule="evenodd" stroke-opacity="0" stroke="#000000" stroke-width="0" stroke-linecap="square" stroke-linejoin="bevel"/><ellipse id="shape090" transform="matrix(0.997600706014592 -0.0171828273066399 0.204119290423158 1.05274643859178 195.778043737526 59.0196694235217)" rx="0.690000066982161" ry="0.629999929500174" cx="0.690000066982161" cy="0.629999929500174" fill="#ffffff" fill-rule="evenodd" stroke-opacity="0" stroke="#000000" stroke-width="0" stroke-linecap="square" stroke-linejoin="bevel"/><ellipse id="shape091" transform="matrix(0.997600706014592 -0.0171828273066399 0.204119290423158 1.05274643859178 203.151119505754 57.2449049572396)" rx="0.690000066982161" ry="0.629999929500174" cx="0.690000066982161" cy="0.629999929500174" fill="#ffffff" fill-rule="evenodd" stroke-opacity="0" stroke="#000000" stroke-width="0" stroke-linecap="square" stroke-linejoin="bevel"/><ellipse id="shape092" transform="matrix(0.997600706014592 -0.0171828273066399 0.204119290423158 1.05274643859178 209.778405413071 61.5353689336581)" rx="0.690000066982161" ry="0.629999929500174" cx="0.690000066982161" cy="0.629999929500174" fill="#ffffff" fill-rule="evenodd" stroke-opacity="0" stroke="#000000" stroke-width="0" stroke-linecap="square" stroke-linejoin="bevel"/><ellipse id="shape093" transform="matrix(0.997600706014592 -0.0171828273066399 0.204119290423158 1.05274643859178 197.086505389491 66.69728328756)" rx="0.690000066982161" ry="0.629999929500174" cx="0.690000066982161" cy="0.629999929500174" fill="#ffffff" fill-rule="evenodd" stroke-opacity="0" stroke="#000000" stroke-width="0" stroke-linecap="square" stroke-linejoin="bevel"/><ellipse id="shape094" transform="matrix(0.997600706014592 -0.0171828273066399 0.204119290423158 1.05274643859178 218.228021919965 67.7907801821584)" rx="0.690000066982161" ry="0.629999929500174" cx="0.690000066982161" cy="0.629999929500174" fill="#ffffff" fill-rule="evenodd" stroke-opacity="0" stroke="#000000" stroke-width="0" stroke-linecap="square" stroke-linejoin="bevel"/><ellipse id="shape095" transform="matrix(0.997600706014592 -0.0171828273066399 0.204119290423158 1.05274643859178 229.597562327076 72.3798172604836)" rx="0.690000066982161" ry="0.629999929500174" cx="0.690000066982161" cy="0.629999929500174" fill="#ffffff" fill-rule="evenodd" stroke-opacity="0" stroke="#000000" stroke-width="0" stroke-linecap="square" stroke-linejoin="bevel"/><ellipse id="shape096" transform="matrix(0.997600706014592 -0.0171828273066399 0.204119290423158 1.05274643859178 224.344384268313 59.2247695281644)" rx="0.690000066982161" ry="0.629999929500174" cx="0.690000066982161" cy="0.629999929500174" fill="#ffffff" fill-rule="evenodd" stroke-opacity="0" stroke="#000000" stroke-width="0" stroke-linecap="square" stroke-linejoin="bevel"/><ellipse id="shape097" transform="matrix(0.997600706014592 -0.0171828273066399 0.204119290423158 1.05274643859178 239.391451500342 60.1697352351298)" rx="0.690000066982161" ry="0.629999929500174" cx="0.690000066982161" cy="0.629999929500174" fill="#ffffff" fill-rule="evenodd" stroke-opacity="0" stroke="#000000" stroke-width="0" stroke-linecap="square" stroke-linejoin="bevel"/><ellipse id="shape098" transform="matrix(0.997600706014592 -0.0171828273066399 0.204119290423158 1.05274643859178 197.30841169953 80.5410579377971)" rx="0.690000066982161" ry="0.629999929500174" cx="0.690000066982161" cy="0.629999929500174" fill="#ffffff" fill-rule="evenodd" stroke-opacity="0" stroke="#000000" stroke-width="0" stroke-linecap="square" stroke-linejoin="bevel"/><ellipse id="shape099" transform="matrix(0.997600706014592 -0.0171828273066399 0.204119290423158 1.05274643859178 246.130845616227 84.7068157218158)" rx="0.690000066982161" ry="0.629999929500174" cx="0.690000066982161" cy="0.629999929500174" fill="#ffffff" fill-rule="evenodd" stroke-opacity="0" stroke="#000000" stroke-width="0" stroke-linecap="square" stroke-linejoin="bevel"/><ellipse id="shape6" transform="matrix(0.766026947557651 -0.642808459508358 0.642808459508358 0.766026947557651 55.0361257379545 125.917302606765)" rx="0.690000066982161" ry="0.629999929500174" cx="0.690000066982161" cy="0.629999929500174" fill="#ffffff" fill-rule="evenodd" stroke="none" stroke-width="1.3007592" stroke-linecap="square" stroke-linejoin="bevel"/><ellipse id="shape0100" transform="matrix(0.766026947479235 -0.642808459442555 0.642808459442555 0.766026947479235 70.3762932856541 137.068394842788)" rx="0.690000066982161" ry="0.629999929500174" cx="0.690000066982161" cy="0.629999929500174" fill="#ffffff" fill-rule="evenodd" stroke-opacity="0" stroke="#000000" stroke-width="0" stroke-linecap="square" stroke-linejoin="bevel"/><ellipse id="shape0101" transform="matrix(0.766026947479235 -0.642808459442555 0.642808459442555 0.766026947479235 138.35295204531 95.3123136004515)" rx="0.690000066982161" ry="0.629999929500174" cx="0.690000066982161" cy="0.629999929500174" fill="#ffffff" fill-rule="evenodd" stroke-opacity="0" stroke="#000000" stroke-width="0" stroke-linecap="square" stroke-linejoin="bevel"/><path id="shape0102" transform="matrix(0.766026947479235 -0.642808459442555 0.642808459442555 0.766026947479235 95.9624525526876 147.640588697528)" sodipodi:type="arc" sodipodi:rx="0.690000066982161" sodipodi:ry="0.629999929500174" sodipodi:cx="0.690089144153159" sodipodi:cy="0.630115221369862" sodipodi:start="6.28318530717959" sodipodi:end="5.92876409200231" sodipodi:open="true" d="M1.3372 0.411475C1.21316 0.105423 0.85369 -0.0634851 0.508828 0.0222418C0.163967 0.107969 -0.0521116 0.419951 0.010895 0.741174C0.0739016 1.0624 0.395135 1.28652 0.751147 1.25764C1.10716 1.22877 1.38009 0.95645 1.38009 0.630115" fill="#ffffff" fill-rule="evenodd" stroke-opacity="0" stroke="#000000" stroke-width="0" stroke-linecap="square" stroke-linejoin="bevel"/><ellipse id="shape0103" transform="matrix(0.766026947479235 -0.642808459442555 0.642808459442555 0.766026947479235 120.81430469053 86.3856891544266)" rx="0.690000066982161" ry="0.629999929500174" cx="0.690000066982161" cy="0.629999929500174" fill="#ffffff" fill-rule="evenodd" stroke-opacity="0" stroke="#000000" stroke-width="0" stroke-linecap="square" stroke-linejoin="bevel"/><ellipse id="shape0104" transform="matrix(0.766026947479235 -0.642808459442555 0.642808459442555 0.766026947479235 79.613578870803 153.001982079091)" rx="0.690000066982161" ry="0.629999929500174" cx="0.690000066982161" cy="0.629999929500174" fill="#ffffff" fill-rule="evenodd" stroke-opacity="0" stroke="#000000" stroke-width="0" stroke-linecap="square" stroke-linejoin="bevel"/><ellipse id="shape0105" transform="matrix(0.766026947479235 -0.642808459442555 0.642808459442555 0.766026947479235 79.784361615577 108.470232725654)" rx="0.690000066982161" ry="0.629999929500174" cx="0.690000066982161" cy="0.629999929500174" fill="#ffffff" fill-rule="evenodd" stroke-opacity="0" stroke="#000000" stroke-width="0" stroke-linecap="square" stroke-linejoin="bevel"/><ellipse id="shape0106" transform="matrix(0.766026947479235 -0.642808459442555 0.642808459442555 0.766026947479235 98.6907901680537 89.3675989892994)" rx="0.690000066982161" ry="0.629999929500174" cx="0.690000066982161" cy="0.629999929500174" fill="#ffffff" fill-rule="evenodd" stroke-opacity="0" stroke="#000000" stroke-width="0" stroke-linecap="square" stroke-linejoin="bevel"/><ellipse id="shape0107" transform="matrix(0.766026947479235 -0.642808459442555 0.642808459442555 0.766026947479235 139.75357644166 112.706820607456)" rx="0.690000066982161" ry="0.629999929500174" cx="0.690000066982161" cy="0.629999929500174" fill="#ffffff" fill-rule="evenodd" stroke-opacity="0" stroke="#000000" stroke-width="0" stroke-linecap="square" stroke-linejoin="bevel"/><ellipse id="shape0108" transform="matrix(0.766026947479235 -0.642808459442555 0.642808459442555 0.766026947479235 120.534093870222 78.4647546482521)" rx="0.690000066982161" ry="0.629999929500174" cx="0.690000066982161" cy="0.629999929500174" fill="#ffffff" fill-rule="evenodd" stroke-opacity="0" stroke="#000000" stroke-width="0" stroke-linecap="square" stroke-linejoin="bevel"/><ellipse id="shape0109" transform="matrix(0.766026947479235 -0.642808459442555 0.642808459442555 0.766026947479235 132.141891137287 59.1749200679677)" rx="0.690000066982161" ry="0.629999929500174" cx="0.690000066982161" cy="0.629999929500174" fill="#ffffff" fill-rule="evenodd" stroke-opacity="0" stroke="#000000" stroke-width="0" stroke-linecap="square" stroke-linejoin="bevel"/><ellipse id="shape0110" transform="matrix(0.766026947479235 -0.642808459442555 0.642808459442555 0.766026947479235 92.1690239385749 120.327987705872)" rx="0.690000066982161" ry="0.629999929500174" cx="0.690000066982161" cy="0.629999929500174" fill="#ffffff" fill-rule="evenodd" stroke-opacity="0" stroke="#000000" stroke-width="0" stroke-linecap="square" stroke-linejoin="bevel"/><ellipse id="shape0111" transform="matrix(0.766026947479235 -0.642808459442555 0.642808459442555 0.766026947479235 97.0723106362198 114.176931822428)" rx="0.690000066982161" ry="0.629999929500174" cx="0.690000066982161" cy="0.629999929500174" fill="#ffffff" fill-rule="evenodd" stroke-opacity="0" stroke="#000000" stroke-width="0" stroke-linecap="square" stroke-linejoin="bevel"/><ellipse id="shape0112" transform="matrix(0.766026947479235 -0.642808459442555 0.642808459442555 0.766026947479235 104.188118184459 113.649402887924)" rx="0.690000066982161" ry="0.629999929500174" cx="0.690000066982161" cy="0.629999929500174" fill="#ffffff" fill-rule="evenodd" stroke-opacity="0" stroke="#000000" stroke-width="0" stroke-linecap="square" stroke-linejoin="bevel"/><ellipse id="shape0113" transform="matrix(0.766026947479235 -0.642808459442555 0.642808459442555 0.766026947479235 96.7172126072573 126.028029085334)" rx="0.690000066982161" ry="0.629999929500174" cx="0.690000066982161" cy="0.629999929500174" fill="#ffffff" fill-rule="evenodd" stroke-opacity="0" stroke="#000000" stroke-width="0" stroke-linecap="square" stroke-linejoin="bevel"/><ellipse id="shape0114" transform="matrix(0.766026947479235 -0.642808459442555 0.642808459442555 0.766026947479235 113.621912517838 113.644020432816)" rx="0.690000066982161" ry="0.629999929500174" cx="0.690000066982161" cy="0.629999929500174" fill="#ffffff" fill-rule="evenodd" stroke-opacity="0" stroke="#000000" stroke-width="0" stroke-linecap="square" stroke-linejoin="bevel"/><ellipse id="shape0115" transform="matrix(0.766026947479235 -0.642808459442555 0.642808459442555 0.766026947479235 124.55413742775 110.383917464529)" rx="0.690000066982161" ry="0.629999929500174" cx="0.690000066982161" cy="0.629999929500174" fill="#ffffff" fill-rule="evenodd" stroke-opacity="0" stroke="#000000" stroke-width="0" stroke-linecap="square" stroke-linejoin="bevel"/><ellipse id="shape0116" transform="matrix(0.766026947479235 -0.642808459442555 0.642808459442555 0.766026947479235 114.425045921525 102.513521669525)" rx="0.690000066982161" ry="0.629999929500174" cx="0.690000066982161" cy="0.629999929500174" fill="#ffffff" fill-rule="evenodd" stroke-opacity="0" stroke="#000000" stroke-width="0" stroke-linecap="square" stroke-linejoin="bevel"/><ellipse id="shape0117" transform="matrix(0.766026947479235 -0.642808459442555 0.642808459442555 0.766026947479235 126.533348208439 93.841086080133)" rx="0.690000066982161" ry="0.629999929500174" cx="0.690000066982161" cy="0.629999929500174" fill="#ffffff" fill-rule="evenodd" stroke-opacity="0" stroke="#000000" stroke-width="0" stroke-linecap="square" stroke-linejoin="bevel"/><ellipse id="shape0118" transform="matrix(0.766026947479235 -0.642808459442555 0.642808459442555 0.766026947479235 103.260004914636 137.651950305534)" rx="0.690000066982161" ry="0.629999929500174" cx="0.690000066982161" cy="0.629999929500174" fill="#ffffff" fill-rule="evenodd" stroke-opacity="0" stroke="#000000" stroke-width="0" stroke-linecap="square" stroke-linejoin="bevel"/><ellipse id="shape0119" transform="matrix(0.766026947479235 -0.642808459442555 0.642808459442555 0.766026947479235 143.053231659631 110.447394499314)" rx="0.690000066982161" ry="0.629999929500174" cx="0.690000066982161" cy="0.629999929500174" fill="#ffffff" fill-rule="evenodd" stroke-opacity="0" stroke="#000000" stroke-width="0" stroke-linecap="square" stroke-linejoin="bevel"/><ellipse id="shape7" transform="matrix(-0.871025326461182 -0.486638776776026 0.352761069021857 -1.0126694313094 108.257420953074 148.815504744813)" rx="0.690000066982161" ry="0.629999929500174" cx="0.690000066982161" cy="0.629999929500174" fill="#ffffff" fill-rule="evenodd" stroke="none" stroke-width="1.3007592" stroke-linecap="square" stroke-linejoin="bevel"/><ellipse id="shape0120" transform="matrix(-0.871025326372018 -0.48663877672621 0.352761068985746 -1.01266943120574 110.757342897493 127.949276152291)" rx="0.690000066982161" ry="0.629999929500174" cx="0.690000066982161" cy="0.629999929500174" fill="#ffffff" fill-rule="evenodd" stroke-opacity="0" stroke="#000000" stroke-width="0" stroke-linecap="square" stroke-linejoin="bevel"/><ellipse id="shape0121" transform="matrix(-0.871025326372018 -0.48663877672621 0.352761068985746 -1.01266943120574 46.1527434287817 77.6890516265062)" rx="0.690000066982161" ry="0.629999929500174" cx="0.690000066982161" cy="0.629999929500174" fill="#ffffff" fill-rule="evenodd" stroke-opacity="0" stroke="#000000" stroke-width="0" stroke-linecap="square" stroke-linejoin="bevel"/><path id="shape0122" transform="matrix(-0.871025326372018 -0.48663877672621 0.352761068985746 -1.01266943120574 108.2636427403 96.8618909403631)" sodipodi:type="arc" sodipodi:rx="0.690000066982161" sodipodi:ry="0.629999929500174" sodipodi:cx="0.690089144153159" sodipodi:cy="0.630115221369862" sodipodi:start="6.28318530717959" sodipodi:end="5.92876409200231" sodipodi:open="true" d="M1.3372 0.411475C1.21316 0.105423 0.85369 -0.0634851 0.508828 0.0222418C0.163967 0.107969 -0.0521116 0.419951 0.010895 0.741174C0.0739016 1.0624 0.395135 1.28652 0.751147 1.25764C1.10716 1.22877 1.38009 0.95645 1.38009 0.630115" fill="#ffffff" fill-rule="evenodd" stroke-opacity="0" stroke="#000000" stroke-width="0" stroke-linecap="square" stroke-linejoin="bevel"/><ellipse id="shape0123" transform="matrix(-0.871025326372018 -0.48663877672621 0.352761068985746 -1.01266943120574 46.4677788678916 99.7761889601155)" rx="0.690000066982161" ry="0.629999929500174" cx="0.690000066982161" cy="0.629999929500174" fill="#ffffff" fill-rule="evenodd" stroke-opacity="0" stroke="#000000" stroke-width="0" stroke-linecap="square" stroke-linejoin="bevel"/><ellipse id="shape0124" transform="matrix(-0.871025326372018 -0.48663877672621 0.352761068985746 -1.01266943120574 119.915485714353 111.116860276168)" rx="0.690000066982161" ry="0.629999929500174" cx="0.690000066982161" cy="0.629999929500174" fill="#ffffff" fill-rule="evenodd" stroke-opacity="0" stroke="#000000" stroke-width="0" stroke-linecap="square" stroke-linejoin="bevel"/><ellipse id="shape0125" transform="matrix(-0.871025326372018 -0.48663877672621 0.352761068985746 -1.01266943120574 82.8732563340811 131.556508521083)" rx="0.690000066982161" ry="0.629999929500174" cx="0.690000066982161" cy="0.629999929500174" fill="#ffffff" fill-rule="evenodd" stroke-opacity="0" stroke="#000000" stroke-width="0" stroke-linecap="square" stroke-linejoin="bevel"/><ellipse id="shape0126" transform="matrix(-0.871025326372018 -0.48663877672621 0.352761068985746 -1.01266943120574 58.6879107083349 121.044338841817)" rx="0.690000066982161" ry="0.629999929500174" cx="0.690000066982161" cy="0.629999929500174" fill="#ffffff" fill-rule="evenodd" stroke-opacity="0" stroke="#000000" stroke-width="0" stroke-linecap="square" stroke-linejoin="bevel"/><ellipse id="shape0127" transform="matrix(-0.871025326372018 -0.48663877672621 0.352761068985746 -1.01266943120574 59.9754576549567 68.2029839727169)" rx="0.690000066982161" ry="0.629999929500174" cx="0.690000066982161" cy="0.629999929500174" fill="#ffffff" fill-rule="evenodd" stroke-opacity="0" stroke="#000000" stroke-width="0" stroke-linecap="square" stroke-linejoin="bevel"/><ellipse id="shape0128" transform="matrix(-0.871025326372018 -0.48663877672621 0.352761068985746 -1.01266943120574 40.0158225586915 103.729781115279)" rx="0.690000066982161" ry="0.629999929500174" cx="0.690000066982161" cy="0.629999929500174" fill="#ffffff" fill-rule="evenodd" stroke-opacity="0" stroke="#000000" stroke-width="0" stroke-linecap="square" stroke-linejoin="bevel"/><ellipse id="shape0129" transform="matrix(-0.871025326372018 -0.48663877672621 0.352761068985746 -1.01266943120574 18.8899124221663 100.776104134841)" rx="0.690000066982161" ry="0.629999929500174" cx="0.690000066982161" cy="0.629999929500174" fill="#ffffff" fill-rule="evenodd" stroke-opacity="0" stroke="#000000" stroke-width="0" stroke-linecap="square" stroke-linejoin="bevel"/><ellipse id="shape0130" transform="matrix(-0.871025326372018 -0.48663877672621 0.352761068985746 -1.01266943120574 87.2616126119162 113.388796053874)" rx="0.690000066982161" ry="0.629999929500174" cx="0.690000066982161" cy="0.629999929500174" fill="#ffffff" fill-rule="evenodd" stroke-opacity="0" stroke="#000000" stroke-width="0" stroke-linecap="square" stroke-linejoin="bevel"/><ellipse id="shape0131" transform="matrix(-0.871025326372018 -0.48663877672621 0.352761068985746 -1.01266943120574 79.9956995037823 111.216575554048)" rx="0.690000066982161" ry="0.629999929500174" cx="0.690000066982161" cy="0.629999929500174" fill="#ffffff" fill-rule="evenodd" stroke-opacity="0" stroke="#000000" stroke-width="0" stroke-linecap="square" stroke-linejoin="bevel"/><ellipse id="shape0132" transform="matrix(-0.871025326372018 -0.48663877672621 0.352761068985746 -1.01266943120574 76.4234761431439 104.176105406964)" rx="0.690000066982161" ry="0.629999929500174" cx="0.690000066982161" cy="0.629999929500174" fill="#ffffff" fill-rule="evenodd" stroke-opacity="0" stroke="#000000" stroke-width="0" stroke-linecap="square" stroke-linejoin="bevel"/><ellipse id="shape0133" transform="matrix(-0.871025326372018 -0.48663877672621 0.352761068985746 -1.01266943120574 89.9900249396127 106.094031307153)" rx="0.690000066982161" ry="0.629999929500174" cx="0.690000066982161" cy="0.629999929500174" fill="#ffffff" fill-rule="evenodd" stroke-opacity="0" stroke="#000000" stroke-width="0" stroke-linecap="square" stroke-linejoin="bevel"/><ellipse id="shape0134" transform="matrix(-0.871025326372018 -0.48663877672621 0.352761068985746 -1.01266943120574 72.2636945123296 94.5209303290394)" rx="0.690000066982161" ry="0.629999929500174" cx="0.690000066982161" cy="0.629999929500174" fill="#ffffff" fill-rule="evenodd" stroke-opacity="0" stroke="#000000" stroke-width="0" stroke-linecap="square" stroke-linejoin="bevel"/><ellipse id="shape0135" transform="matrix(-0.871025326372018 -0.48663877672621 0.352761068985746 -1.01266943120574 64.7420663999925 84.8384295717529)" rx="0.690000066982161" ry="0.629999929500174" cx="0.690000066982161" cy="0.629999929500174" fill="#ffffff" fill-rule="evenodd" stroke-opacity="0" stroke="#000000" stroke-width="0" stroke-linecap="square" stroke-linejoin="bevel"/><ellipse id="shape0136" transform="matrix(-0.871025326372018 -0.48663877672621 0.352761068985746 -1.01266943120574 62.6702106769419 98.851229949248)" rx="0.690000066982161" ry="0.629999929500174" cx="0.690000066982161" cy="0.629999929500174" fill="#ffffff" fill-rule="evenodd" stroke-opacity="0" stroke="#000000" stroke-width="0" stroke-linecap="square" stroke-linejoin="bevel"/><ellipse id="shape0137" transform="matrix(-0.871025326372018 -0.48663877672621 0.352761068985746 -1.01266943120574 50.1376314204533 90.4702007969089)" rx="0.690000066982161" ry="0.629999929500174" cx="0.690000066982161" cy="0.629999929500174" fill="#ffffff" fill-rule="evenodd" stroke-opacity="0" stroke="#000000" stroke-width="0" stroke-linecap="square" stroke-linejoin="bevel"/><ellipse id="shape0138" transform="matrix(-0.871025326372018 -0.48663877672621 0.352761068985746 -1.01266943120574 96.7574442678444 94.0150671705696)" rx="0.690000066982161" ry="0.629999929500174" cx="0.690000066982161" cy="0.629999929500174" fill="#ffffff" fill-rule="evenodd" stroke-opacity="0" stroke="#000000" stroke-width="0" stroke-linecap="square" stroke-linejoin="bevel"/><ellipse id="shape0139" transform="matrix(-0.871025326372018 -0.48663877672621 0.352761068985746 -1.01266943120574 56.6464445155064 65.8709507279942)" rx="0.690000066982161" ry="0.629999929500174" cx="0.690000066982161" cy="0.629999929500174" fill="#ffffff" fill-rule="evenodd" stroke-opacity="0" stroke="#000000" stroke-width="0" stroke-linecap="square" stroke-linejoin="bevel"/><ellipse id="shape8" transform="matrix(-0.985339946724555 0.170602430782363 -0.170602430782363 -0.985339946724555 242.556961018028 126.309150969361)" rx="0.690000066982161" ry="0.629999929500174" cx="0.690000066982161" cy="0.629999929500174" fill="#ffffff" fill-rule="evenodd" stroke="none" stroke-width="1.3007592" stroke-linecap="square" stroke-linejoin="bevel"/><ellipse id="shape0140" transform="matrix(-0.985339946623688 0.170602430764899 -0.170602430764899 -0.985339946623688 234.901615279764 108.957975790848)" rx="0.690000066982161" ry="0.629999929500174" cx="0.690000066982161" cy="0.629999929500174" fill="#ffffff" fill-rule="evenodd" stroke-opacity="0" stroke="#000000" stroke-width="0" stroke-linecap="square" stroke-linejoin="bevel"/><ellipse id="shape0141" transform="matrix(-0.985339946623688 0.170602430764899 -0.170602430764899 -0.985339946623688 155.147669861835 110.882721778569)" rx="0.690000066982161" ry="0.629999929500174" cx="0.690000066982161" cy="0.629999929500174" fill="#ffffff" fill-rule="evenodd" stroke-opacity="0" stroke="#000000" stroke-width="0" stroke-linecap="square" stroke-linejoin="bevel"/><path id="shape0142" transform="matrix(-0.985339946623688 0.170602430764899 -0.170602430764899 -0.985339946623688 218.097991244769 86.9565883748062)" sodipodi:type="arc" sodipodi:rx="0.690000066982161" sodipodi:ry="0.629999929500174" sodipodi:cx="0.690089144153159" sodipodi:cy="0.630115221369862" sodipodi:start="6.28318530717959" sodipodi:end="5.92876409200231" sodipodi:open="true" d="M1.3372 0.411475C1.21316 0.105423 0.85369 -0.0634851 0.508828 0.0222418C0.163967 0.107969 -0.0521116 0.419951 0.010895 0.741174C0.0739016 1.0624 0.395135 1.28652 0.751147 1.25764C1.10716 1.22877 1.38009 0.95645 1.38009 0.630115" fill="#ffffff" fill-rule="evenodd" stroke-opacity="0" stroke="#000000" stroke-width="0" stroke-linecap="square" stroke-linejoin="bevel"/><ellipse id="shape0143" transform="matrix(-0.985339946623688 0.170602430764899 -0.170602430764899 -0.985339946623688 165.821754329161 127.4161030365)" rx="0.690000066982161" ry="0.629999929500174" cx="0.690000066982161" cy="0.629999929500174" fill="#ffffff" fill-rule="evenodd" stroke-opacity="0" stroke="#000000" stroke-width="0" stroke-linecap="square" stroke-linejoin="bevel"/><ellipse id="shape0144" transform="matrix(-0.985339946623688 0.170602430764899 -0.170602430764899 -0.985339946623688 234.926131344504 90.5404285556421)" rx="0.690000066982161" ry="0.629999929500174" cx="0.690000066982161" cy="0.629999929500174" fill="#ffffff" fill-rule="evenodd" stroke-opacity="0" stroke="#000000" stroke-width="0" stroke-linecap="square" stroke-linejoin="bevel"/><ellipse id="shape0145" transform="matrix(-0.985339946623688 0.170602430764899 -0.170602430764899 -0.985339946623688 212.392439520951 128.950565238871)" rx="0.690000066982161" ry="0.629999929500174" cx="0.690000066982161" cy="0.629999929500174" fill="#ffffff" fill-rule="evenodd" stroke-opacity="0" stroke="#000000" stroke-width="0" stroke-linecap="square" stroke-linejoin="bevel"/><ellipse id="shape0146" transform="matrix(-0.985339946623688 0.170602430764899 -0.170602430764899 -0.985339946623688 186.445686396301 135.959820446358)" rx="0.690000066982161" ry="0.629999929500174" cx="0.690000066982161" cy="0.629999929500174" fill="#ffffff" fill-rule="evenodd" stroke-opacity="0" stroke="#000000" stroke-width="0" stroke-linecap="square" stroke-linejoin="bevel"/><ellipse id="shape0147" transform="matrix(-0.985339946623688 0.170602430764899 -0.170602430764899 -0.985339946623688 162.681081496502 95.141745574437)" rx="0.690000066982161" ry="0.629999929500174" cx="0.690000066982161" cy="0.629999929500174" fill="#ffffff" fill-rule="evenodd" stroke-opacity="0" stroke="#000000" stroke-width="0" stroke-linecap="square" stroke-linejoin="bevel"/><ellipse id="shape0148" transform="matrix(-0.985339946623688 0.170602430764899 -0.170602430764899 -0.985339946623688 162.082141610511 134.40430869099)" rx="0.690000066982161" ry="0.629999929500174" cx="0.690000066982161" cy="0.629999929500174" fill="#ffffff" fill-rule="evenodd" stroke-opacity="0" stroke="#000000" stroke-width="0" stroke-linecap="square" stroke-linejoin="bevel"/><ellipse id="shape0149" transform="matrix(-0.985339946623688 0.170602430764899 -0.170602430764899 -0.985339946623688 142.350669599271 145.244404991193)" rx="0.690000066982161" ry="0.629999929500174" cx="0.690000066982161" cy="0.629999929500174" fill="#ffffff" fill-rule="evenodd" stroke-opacity="0" stroke="#000000" stroke-width="0" stroke-linecap="square" stroke-linejoin="bevel"/><ellipse id="shape0150" transform="matrix(-0.985339946623688 0.170602430764899 -0.170602430764899 -0.985339946623688 207.647253177858 112.474236139375)" rx="0.690000066982161" ry="0.629999929500174" cx="0.690000066982161" cy="0.629999929500174" fill="#ffffff" fill-rule="evenodd" stroke-opacity="0" stroke="#000000" stroke-width="0" stroke-linecap="square" stroke-linejoin="bevel"/><ellipse id="shape0151" transform="matrix(-0.985339946623688 0.170602430764899 -0.170602430764899 -0.985339946623688 200.31642155638 115.326711670925)" rx="0.690000066982161" ry="0.629999929500174" cx="0.690000066982161" cy="0.629999929500174" fill="#ffffff" fill-rule="evenodd" stroke-opacity="0" stroke="#000000" stroke-width="0" stroke-linecap="square" stroke-linejoin="bevel"/><ellipse id="shape0152" transform="matrix(-0.985339946623688 0.170602430764899 -0.170602430764899 -0.985339946623688 193.899890752547 112.205632324965)" rx="0.690000066982161" ry="0.629999929500174" cx="0.690000066982161" cy="0.629999929500174" fill="#ffffff" fill-rule="evenodd" stroke-opacity="0" stroke="#000000" stroke-width="0" stroke-linecap="square" stroke-linejoin="bevel"/><ellipse id="shape0153" transform="matrix(-0.985339946623688 0.170602430764899 -0.170602430764899 -0.985339946623688 206.580922480962 105.260400076754)" rx="0.690000066982161" ry="0.629999929500174" cx="0.690000066982161" cy="0.629999929500174" fill="#ffffff" fill-rule="evenodd" stroke-opacity="0" stroke="#000000" stroke-width="0" stroke-linecap="square" stroke-linejoin="bevel"/><ellipse id="shape0154" transform="matrix(-0.985339946623688 0.170602430764899 -0.170602430764899 -0.985339946623688 185.74203170238 107.467928217178)" rx="0.690000066982161" ry="0.629999929500174" cx="0.690000066982161" cy="0.629999929500174" fill="#ffffff" fill-rule="evenodd" stroke-opacity="0" stroke="#000000" stroke-width="0" stroke-linecap="square" stroke-linejoin="bevel"/><ellipse id="shape0155" transform="matrix(-0.985339946623688 0.170602430764899 -0.170602430764899 -0.985339946623688 174.652692825858 104.790545889907)" rx="0.690000066982161" ry="0.629999929500174" cx="0.690000066982161" cy="0.629999929500174" fill="#ffffff" fill-rule="evenodd" stroke-opacity="0" stroke="#000000" stroke-width="0" stroke-linecap="square" stroke-linejoin="bevel"/><ellipse id="shape0156" transform="matrix(-0.985339946623688 0.170602430764899 -0.170602430764899 -0.985339946623688 179.452465380821 116.686083209933)" rx="0.690000066982161" ry="0.629999929500174" cx="0.690000066982161" cy="0.629999929500174" fill="#ffffff" fill-rule="evenodd" stroke-opacity="0" stroke="#000000" stroke-width="0" stroke-linecap="square" stroke-linejoin="bevel"/><ellipse id="shape0157" transform="matrix(-0.985339946623688 0.170602430764899 -0.170602430764899 -0.985339946623688 164.625679648173 118.096242123531)" rx="0.690000066982161" ry="0.629999929500174" cx="0.690000066982161" cy="0.629999929500174" fill="#ffffff" fill-rule="evenodd" stroke-opacity="0" stroke="#000000" stroke-width="0" stroke-linecap="square" stroke-linejoin="bevel"/><ellipse id="shape0158" transform="matrix(-0.985339946623688 0.170602430764899 -0.170602430764899 -0.985339946623688 206.768260707995 91.922912303579)" rx="0.690000066982161" ry="0.629999929500174" cx="0.690000066982161" cy="0.629999929500174" fill="#ffffff" fill-rule="evenodd" stroke-opacity="0" stroke="#000000" stroke-width="0" stroke-linecap="square" stroke-linejoin="bevel"/><ellipse id="shape0159" transform="matrix(-0.985339946623688 0.170602430764899 -0.170602430764899 -0.985339946623688 158.692845364291 95.4362000689828)" rx="0.690000066982161" ry="0.629999929500174" cx="0.690000066982161" cy="0.629999929500174" fill="#ffffff" fill-rule="evenodd" stroke-opacity="0" stroke="#000000" stroke-width="0" stroke-linecap="square" stroke-linejoin="bevel"/><path id="shape9" transform="translate(161.696645777772, 46.0709381582686)" fill="#f2fc24" fill-rule="evenodd" stroke="#ffea00" stroke-width="1.3007592" stroke-linecap="square" stroke-linejoin="bevel" d="M3.19933 2.26363L0 3.60294L3.24115 3.98021L2.71839 6.48906L4.99765 5.05543L7.56966 5.73452L6.77506 3.73498L8.34336 2.0184L5.6877 2.09385L4.32851 0Z" sodipodi:nodetypes="ccccccccccc"/><path id="shape0160" transform="matrix(-0.86809198774623 0.496403323653796 -0.496403323653796 -0.86809198774623 27.103803123914 55.7076758933704)" fill="#f2fc24" fill-rule="evenodd" stroke="#ffea00" stroke-width="1.3007592" stroke-linecap="square" stroke-linejoin="bevel" d="M2.25964 3.55926L0 5.66516L2.28917 6.25836L1.91996 10.2032L3.52977 7.94903L5.34634 9.01681L4.78512 5.87279L5.8928 3.17369L4.01715 3.29231L3.05717 0Z" sodipodi:nodetypes="ccccccccccc"/><path id="shape0161" transform="matrix(0.823455462758922 0.567380877168258 -0.567380877168258 0.823455462758922 81.8260215660208 40.2693929043525)" fill="#f2fc24" fill-rule="evenodd" stroke="#ffea00" stroke-width="1.3007592" stroke-linecap="square" stroke-linejoin="bevel" d="M3.2203 3.03472L0 4.83027L3.26239 5.33605L2.73621 8.69954L5.03041 6.77756L7.61928 7.68798L6.81947 5.0073L8.76062 2.75159L5.72499 2.80711L4.35689 0Z" sodipodi:nodetypes="ccccccccccc"/><path id="shape0162" transform="matrix(0.999999979461859 0 0 0.999999979461859 56.5200006577801 66.7200007764877)" fill="#f2fc24" fill-rule="evenodd" stroke="#ffea00" stroke-width="1.3007592" stroke-linecap="square" stroke-linejoin="bevel" d="M2.79873 2.65368L0 4.22379L2.8353 4.66606L2.37801 7.60724L4.37187 5.92657L6.62182 6.72268L5.92672 4.37859L7.29865 2.36621L4.97552 2.45466L3.78652 0Z" sodipodi:nodetypes="ccccccccccc"/><path id="shape0163" transform="matrix(-0.589496962334442 0.807770567873199 -0.807770567873199 -0.589496962334442 101.450187060462 65.0380423224146)" fill="#f2fc24" fill-rule="evenodd" stroke="#ffea00" stroke-width="1.3007592" stroke-linecap="square" stroke-linejoin="bevel" d="M4.25028 2.76825L0 4.40613L4.30583 4.8675L3.61135 7.93565L6.63933 6.18243L10.0562 7.01291L9.0006 4.56762L11.0841 2.46837L7.55606 2.56063L5.75039 0Z" sodipodi:nodetypes="ccccccccccc"/><path id="shape0164" transform="matrix(-0.771812121972358 -0.63585061712659 0.63585061712659 -0.771812121972358 48.0841779674705 98.4639072901578)" fill="#f2fc24" fill-rule="evenodd" stroke="#ffea00" stroke-width="1.3007592" stroke-linecap="square" stroke-linejoin="bevel" d="M2.40398 2.97321L0 4.73237L2.4354 5.2279L2.0426 8.52322L3.75523 6.64018L5.68784 7.53215L5.09077 4.90581L6.2692 2.65113L4.27374 2.75022L3.25244 0Z" sodipodi:nodetypes="ccccccccccc"/><path id="shape0165" transform="matrix(0.352871903116277 -0.935671619167122 0.935671619167122 0.352871903116277 180.512790902139 65.7701064894498)" fill="#f2fc24" fill-rule="evenodd" stroke="#ffea00" stroke-width="1.3007592" stroke-linecap="square" stroke-linejoin="bevel" d="M3.14021 2.21972L0 3.53306L3.18125 3.90301L2.66816 6.36322L4.9053 4.95739L7.42978 5.62331L6.64986 3.66255L8.18919 1.97926L5.58261 2.05324L4.24853 0Z" sodipodi:nodetypes="ccccccccccc"/><path id="shape0166" transform="matrix(-0.0881288700476202 -0.996109060890356 0.996109060890356 -0.0881288700476202 76.9195540698314 91.2973074451426)" fill="#f2fc24" fill-rule="evenodd" stroke="#ffea00" stroke-width="1.3007592" stroke-linecap="square" stroke-linejoin="bevel" d="M3.02155 2.16251L0 3.44199L3.06104 3.80241L2.56734 6.1992L4.71995 4.82961L7.14904 5.47837L6.39859 3.56815L7.87975 1.92825L5.37166 2.00032L4.08799 0Z" sodipodi:nodetypes="ccccccccccc"/><path id="shape0167" transform="matrix(-0.980760423667234 -0.195215138480083 0.195215138480083 -0.980760423667234 187.208110201505 53.6300972746714)" fill="#f2fc24" fill-rule="evenodd" stroke="#ffea00" stroke-width="1.3007592" stroke-linecap="square" stroke-linejoin="bevel" d="M2.85688 1.89599L0 3.01779L2.89421 3.33378L2.42741 5.43518L4.4627 4.23438L6.7594 4.80319L6.04986 3.12839L7.45029 1.6906L5.0789 1.75379L3.86519 0Z" sodipodi:nodetypes="ccccccccccc"/><path id="shape10" fill="#4c4c4c" fill-rule="evenodd" stroke="#333333" stroke-width="2.4" stroke-linecap="square" stroke-linejoin="bevel" d="M240 0L0 3.80251e-15C0.124499 1.31741 0.124499 8.72789 0 22.2314C0.267559 25.0692 1.28579 28.2937 3.0547 31.9047C16.0406 31.7996 22.9328 31.7175 23.7312 31.6584C56.0722 29.2629 55.9232 20.0655 87.5681 20.3647C108.032 24.2917 155.036 10.687 175.476 10.1823C190.911 9.80124 205.491 33.3078 220.685 34.1022C224.207 34.2863 230.645 39.4369 240 49.554L240 0" sodipodi:nodetypes="cccccccccc"/><path id="shape11" transform="translate(0, 74.8185487434681)" fill="#666666" fill-rule="evenodd" stroke="#404040" stroke-width="2.4" stroke-linecap="square" stroke-linejoin="bevel" d="M240 9.35544L240 97.9815L2.88658e-15 97.9815C0.247913 77.6658 0.247913 65.9994 0 62.9824C47.3678 60.5165 23.2652 41.9721 40.3079 34.398C45.0872 32.2741 48.2821 78.4897 53.2876 78.765C66.3765 77.7914 69.9593 78.8291 81.1193 77.9165C88.0433 65.5785 86.9621 34.999 88.4326 27.5305C89.2419 23.4197 116.482 -0.462805 120 5.79162C122.625 10.4587 128.318 33.8302 137.079 75.9063L182.264 75.2012L208.323 27.37C214.07 26.6617 217.281 25.8411 217.956 24.9084C222.243 18.9807 219.335 4.57774 224.181 7.31897C225.731 8.19553 225.332 1.82032 226.254 0.361042C228.163 -2.69083 234.056 14.7633 240 9.35544Z" sodipodi:nodetypes="cccccccccccccccc"/><ellipse id="shape12" transform="translate(53.339229241634, 142.027403655204)" rx="13.32" ry="2.04000000000001" cx="13.32" cy="2.04000000000001" fill="#333333" fill-rule="evenodd" stroke="none" stroke-width="9.6" stroke-linecap="square" stroke-linejoin="bevel"/><ellipse id="shape0168" transform="matrix(1.0000000071513 0 0 1.0000000071513 51.3405698270995 139.765761845044)" rx="15.5389511227959" ry="2.56858401525364" cx="15.5389511227959" cy="2.56858401525364" fill="#808080" fill-rule="evenodd" stroke-opacity="0" stroke="#000000" stroke-width="0" stroke-linecap="square" stroke-linejoin="bevel"/><path id="shape13" transform="translate(50.0717202455531, 136.605539329466)" fill="#e6e6e6" fill-rule="evenodd" stroke="none" stroke-width="9.6" stroke-linecap="square" stroke-linejoin="bevel" d="M1.78828 4.72084C0.701285 2.61699 0.105193 1.51246 0 1.40727C4.78627 -0.643988 34.661 -0.170621 32.9779 1.0391C31.9961 1.9157 31.2598 3.21308 30.7689 4.93122C26.8241 3.72151 20.6178 1.51246 1.78828 4.72084Z" sodipodi:nodetypes="ccccc"/><path id="shape14" transform="translate(51.3783769032583, 145.140732771302)" fill="#e6e6e6" fill-rule="evenodd" stroke="#474747" stroke-width="1.0008" stroke-linecap="square" stroke-linejoin="bevel" d="M4.15779 0L0.763675 2.80014L0 7.33977L2.41831 8.27315L3.43654 4.07293L7.59433 0.59397Z" sodipodi:nodetypes="ccccccc"/><path id="shape15" transform="translate(74.6704734514737, 144.843747933711)" fill="#e6e6e6" fill-rule="evenodd" stroke="#474747" stroke-width="1.0008" stroke-linecap="square" stroke-linejoin="bevel" d="M0 1.01823L4.32749 0L6.53367 3.13955L6.61852 7.29734L3.77595 7.67918L3.22441 3.90323Z" sodipodi:nodetypes="ccccccc"/><path id="shape16" transform="translate(64.7400011988786, 145.98000270331)" fill="#e6e6e6" fill-rule="evenodd" stroke="#474747" stroke-width="1.0008" stroke-linecap="square" stroke-linejoin="bevel" d="M0 0.09L5.31 0L4.02 3.18L3.12 6.9L0.69 6.9L0.57 3.48Z" sodipodi:nodetypes="ccccccc"/><path id="shape17" transform="translate(49.7700009216588, 137.340002543312)" fill="#14ef2e" fill-rule="evenodd" stroke="none" stroke-width="1.0008" stroke-linecap="square" stroke-linejoin="bevel" d="M1.92 4.14L0 0.39L1.44 0L3.3 3.75Z" sodipodi:nodetypes="ccccc"/><path id="shape18" transform="translate(79.3800014699874, 137.100002538867)" fill="#0fee29" fill-rule="evenodd" d="M2.01 0.21L0 3.93L1.44 4.47L3.69 0.42L2.37 0Z" sodipodi:nodetypes="cccccc"/><path id="shape19" transform="translate(57.9900010738797, 136.68000253109)" fill="#0fee29" fill-rule="evenodd" d="M0 0.33L1.08 3.57L2.52 3.45L1.5 0Z" sodipodi:nodetypes="ccccc"/><path id="shape20" transform="translate(71.7000013277664, 136.710002531645)" fill="#0fee29" fill-rule="evenodd" d="M0.57 0.09L0 3.09L1.74 3.3L1.98 0Z" sodipodi:nodetypes="ccccc"/>
</svg>
